<?xml version="1.0" encoding="utf-8"?>
<!-- Generator: Adobe Illustrator 25.4.1, SVG Export Plug-In . SVG Version: 6.00 Build 0)  -->
<svg version="1.1" id="Layer_1" xmlns="http://www.w3.org/2000/svg" xmlns:xlink="http://www.w3.org/1999/xlink" x="0px" y="0px"
	 viewBox="0 0 108.5 32" style="enable-background:new 0 0 108.5 32;" xml:space="preserve">
<path d="M14.1,20.9v-10c2.4,0,6.1,0.1,6.1,5S16.7,20.9,14.1,20.9z M102.8,0H91.5l-4.2,15.1L82.6,0H72.1L69,16.4L66,0H54.7l-4.2,15
	L45.8,0H35.3L33,12.3C31.2,4.5,24,0,13.2,0H0v32h16c5.1,0,10.9-1.6,14.3-5.9L29.2,32h11.2l2.3-13.4L46.6,32h8.8l3.3-13.4l2,13.4
	h16.5l2.3-13.4L83.4,32h8.8l3.3-13.4l2,13.4h11L102.8,0z"/>
</svg>
