<svg height="56" viewBox="0 0 239.39 56" width="240" xmlns="http://www.w3.org/2000/svg" xmlns:xlink="http://www.w3.org/1999/xlink"><clipPath id="a"><path d="m14.11 32.9v-10c2.42 0 6.1.1 6.1 5s-3.54 5-6.1 5zm88.7-20.9h-11.32l-4.21 15.05-4.67-15.05h-10.48l-3.13 16.43-3-16.43h-11.29l-4.22 15.05-4.67-15.05h-10.48l-2.34 12.32c-1.8-7.85-9-12.32-19.79-12.32h-13.21v32h16c5.14 0 10.9-1.62 14.33-5.93l-1.13 5.93h11.2l2.31-13.43 3.92 13.43h8.75l3.34-13.36 2 13.36h16.47l2.3-13.43 3.92 13.43h8.76l3.33-13.36 2 13.36h11z"/></clipPath><g clip-path="url(#a)"><path d="m-5 7h118.56v42h-118.56z"/></g><g fill="#333"><path d="m126 22c-2.34 0-4.39.1-5.93.18-.47 0-.62-.22-.69-.72-.11-.72-.25-2.6-.32-3.64a63 63 0 0 0 6.91.25h12.85a3.44 3.44 0 0 0 2-.36 1.09 1.09 0 0 1 .54-.14 1.73 1.73 0 0 1 .68.18 11.07 11.07 0 0 1 2.63 2.37.92.92 0 0 1 .25.62 1.25 1.25 0 0 1 -.5.9 4.09 4.09 0 0 0 -.83 1.4 42.32 42.32 0 0 1 -7 11.7 40.66 40.66 0 0 1 -10.22 8.57 1.81 1.81 0 0 1 -1 .32 1.26 1.26 0 0 1 -.9-.4 10.94 10.94 0 0 0 -3.34-2 34.88 34.88 0 0 0 11.77-9 30.54 30.54 0 0 0 6.1-10.23zm17.57-8.5c.18-.14.32-.11.54.07a16.66 16.66 0 0 1 3.42 3.86.36.36 0 0 1 -.11.57l-1.33 1a.37.37 0 0 1 -.61-.11 17.79 17.79 0 0 0 -3.64-4.17zm2.95-2.19c.22-.15.33-.11.54.07a15.08 15.08 0 0 1 3.42 3.71c.15.21.18.39-.11.64l-1.18 1a.47.47 0 0 1 -.29.14.4.4 0 0 1 -.33-.25 16.79 16.79 0 0 0 -3.6-4.14z"/><path d="m154.33 23.79a.65.65 0 0 1 .94.25 19.09 19.09 0 0 1 3.09 5.33 2 2 0 0 1 .15.54c0 .21-.15.32-.43.5a16.22 16.22 0 0 1 -2.31 1.12c-.5.18-.72 0-.9-.51a21.14 21.14 0 0 0 -3.38-5.79c1.22-.69 2.09-1.08 2.84-1.44zm19.76.46c.29.22.47.4.47.62s-.11.39-.39.64a4.87 4.87 0 0 0 -1.08 1.84 43.63 43.63 0 0 1 -5.44 9.57 28.83 28.83 0 0 1 -7.41 6.95 1.56 1.56 0 0 1 -.87.4.81.81 0 0 1 -.57-.25 8.21 8.21 0 0 0 -3.06-1.52c4.32-2.84 6.47-4.67 8.64-7.48a37.45 37.45 0 0 0 4.85-8.68 12.74 12.74 0 0 0 .83-3.81 16.9 16.9 0 0 1 4.03 1.72zm-12.49-2.19a.63.63 0 0 1 .94.29 20.58 20.58 0 0 1 2.77 5.25c.18.54.11.72-.36 1a14.63 14.63 0 0 1 -2.48 1.12c-.4.14-.54 0-.72-.54a24.63 24.63 0 0 0 -3-5.76c1.41-.71 2.25-1.11 2.85-1.36z"/><path d="m200.59 19a3.36 3.36 0 0 0 1.8-.44.77.77 0 0 1 .47-.14 1 1 0 0 1 .57.22 16.48 16.48 0 0 1 2.45 1.94 1.14 1.14 0 0 1 .47.83 1 1 0 0 1 -.43.75 4.25 4.25 0 0 0 -1.19 1.55 49.35 49.35 0 0 1 -7.13 11.12 45.51 45.51 0 0 1 -10.94 9 1 1 0 0 1 -.58.18 1.27 1.27 0 0 1 -.82-.4 9.58 9.58 0 0 0 -3.42-1.61 41.38 41.38 0 0 0 12-9.17 36.58 36.58 0 0 0 6.66-10.23l-8.71.25a49.84 49.84 0 0 1 -6.8 7.38 1.1 1.1 0 0 1 -.76.4.84.84 0 0 1 -.54-.22 9.86 9.86 0 0 0 -3.45-1.54 42.84 42.84 0 0 0 9.68-10.69 15.29 15.29 0 0 0 2.08-4.9 18.12 18.12 0 0 1 4.22 1.9.76.76 0 0 1 .36.62.72.72 0 0 1 -.4.61 3.83 3.83 0 0 0 -.9 1l-1.19 1.8z"/><path d="m229.52 17.16a5.27 5.27 0 0 0 2.48-.32.58.58 0 0 1 .4-.14 1.24 1.24 0 0 1 .6.3 13.17 13.17 0 0 1 2.34 2.52 1 1 0 0 1 .18.47 1 1 0 0 1 -.47.72 6.62 6.62 0 0 0 -1.33 1.58 57.5 57.5 0 0 1 -4.6 6.71 83.41 83.41 0 0 1 10 8.71.83.83 0 0 1 .29.5.88.88 0 0 1 -.25.54 19.83 19.83 0 0 1 -2.41 2.45.65.65 0 0 1 -.44.21.72.72 0 0 1 -.5-.28 65.45 65.45 0 0 0 -9.36-8.93 51.66 51.66 0 0 1 -12.09 9.5 2.23 2.23 0 0 1 -.83.29.81.81 0 0 1 -.61-.32 9.75 9.75 0 0 0 -3-2.34 43.67 43.67 0 0 0 12.67-9.18 43.69 43.69 0 0 0 6.77-9h-9.29c-1.87 0-3.74.07-5.68.22-.29 0-.4-.22-.47-.62a20.92 20.92 0 0 1 -.32-3.74c1.94.14 3.74.14 6.08.14z"/></g></svg>