<svg width="343" height="500" viewBox="0 0 343 500" fill="none" xmlns="http://www.w3.org/2000/svg">
<rect width="343" height="500" fill="white"/>
<rect width="343" height="500" fill="#F5F5F5"/>
<g opacity="0.15">
<path d="M177.94 216.36C177.837 216.52 177.766 216.699 177.732 216.886C177.698 217.074 177.702 217.266 177.743 217.452C177.784 217.638 177.861 217.814 177.97 217.97C178.08 218.126 178.219 218.258 178.38 218.36C178.614 218.508 178.884 218.588 179.16 218.59C179.403 218.59 179.643 218.528 179.856 218.411C180.069 218.294 180.249 218.125 180.38 217.92C187.07 207.41 194.58 205.35 205.29 205.35C205.653 205.32 205.991 205.155 206.237 204.887C206.483 204.619 206.62 204.269 206.62 203.905C206.62 203.541 206.483 203.191 206.237 202.923C205.991 202.655 205.653 202.49 205.29 202.46C193.87 202.45 185.32 204.78 177.94 216.36Z" fill="black"/>
<path d="M178.091 227.8C177.986 227.959 177.914 228.136 177.879 228.323C177.843 228.51 177.845 228.701 177.884 228.887C177.923 229.073 177.999 229.25 178.106 229.406C178.214 229.563 178.351 229.697 178.511 229.8C178.745 229.953 179.02 230.033 179.301 230.03C179.54 230.03 179.776 229.971 179.987 229.857C180.198 229.744 180.378 229.58 180.511 229.38C185.761 221.3 193.87 217.38 205.29 217.38C205.653 217.35 205.991 217.184 206.237 216.917C206.484 216.649 206.62 216.299 206.62 215.935C206.62 215.571 206.484 215.221 206.237 214.953C205.991 214.685 205.653 214.52 205.29 214.49C192.81 214.49 183.911 218.84 178.091 227.8Z" fill="black"/>
<path d="M178.23 239.25C178.02 239.569 177.944 239.958 178.019 240.332C178.094 240.707 178.314 241.037 178.63 241.25C178.869 241.405 179.146 241.488 179.43 241.49C179.668 241.493 179.903 241.436 180.113 241.324C180.323 241.212 180.501 241.049 180.63 240.85C186.26 232.41 197.43 229.42 205.29 229.42C205.653 229.39 205.991 229.225 206.237 228.957C206.483 228.689 206.62 228.339 206.62 227.975C206.62 227.611 206.483 227.261 206.237 226.993C205.991 226.726 205.653 226.56 205.29 226.53C196.31 226.53 184.48 229.87 178.23 239.25Z" fill="black"/>
<path d="M178.38 250.69C178.166 251.005 178.086 251.392 178.155 251.766C178.224 252.14 178.438 252.472 178.75 252.69C178.992 252.854 179.277 252.941 179.57 252.94C179.804 252.94 180.035 252.883 180.243 252.773C180.45 252.663 180.628 252.504 180.76 252.31C186.34 244.18 199.94 241.44 205.29 241.44C205.671 241.44 206.038 241.288 206.308 241.018C206.578 240.748 206.73 240.382 206.73 240C206.73 239.618 206.578 239.252 206.308 238.982C206.038 238.712 205.671 238.56 205.29 238.56C199.22 238.57 184.66 241.53 178.38 250.69Z" fill="black"/>
<path d="M178.53 262.13C178.421 262.284 178.342 262.459 178.3 262.643C178.258 262.828 178.252 263.019 178.284 263.205C178.348 263.582 178.559 263.919 178.87 264.14C179.182 264.361 179.569 264.45 179.946 264.386C180.323 264.322 180.659 264.112 180.88 263.8C185.88 256.7 201.3 253.49 205.29 253.49C205.653 253.46 205.991 253.294 206.237 253.027C206.483 252.759 206.62 252.409 206.62 252.045C206.62 251.681 206.483 251.331 206.237 251.063C205.991 250.795 205.653 250.63 205.29 250.6C201.5 250.6 184.56 253.61 178.53 262.13Z" fill="black"/>
<path d="M178.68 273.56C178.451 273.868 178.355 274.253 178.411 274.632C178.467 275.011 178.672 275.352 178.98 275.58C179.287 275.808 179.673 275.905 180.052 275.848C180.431 275.792 180.771 275.588 181 275.28C185.7 268.91 203.46 265.53 205.29 265.53C205.652 265.5 205.99 265.335 206.236 265.067C206.483 264.799 206.619 264.449 206.619 264.085C206.619 263.721 206.483 263.371 206.236 263.103C205.99 262.836 205.652 262.67 205.29 262.64C204 262.64 184.49 265.68 178.68 273.56Z" fill="black"/>
<path d="M205 274.7C204.14 274.85 183.85 278.46 178.8 284.99C178.574 285.291 178.474 285.667 178.521 286.04C178.568 286.414 178.757 286.754 179.05 286.99C179.307 287.183 179.619 287.288 179.94 287.29C180.161 287.291 180.379 287.242 180.576 287.144C180.774 287.047 180.947 286.905 181.08 286.73C184.71 282.04 199.93 278.49 205.49 277.52C205.689 277.501 205.882 277.441 206.056 277.344C206.231 277.248 206.383 277.116 206.504 276.957C206.626 276.799 206.713 276.617 206.761 276.423C206.808 276.229 206.815 276.027 206.782 275.831C206.748 275.634 206.674 275.446 206.564 275.28C206.454 275.113 206.311 274.971 206.144 274.862C205.977 274.753 205.789 274.679 205.592 274.646C205.395 274.613 205.194 274.621 205 274.67V274.7Z" fill="black"/>
<path d="M243.5 203.08H238.93C238.841 202.769 238.653 202.496 238.396 202.301C238.138 202.106 237.823 202.001 237.5 202C234.57 202 231.74 202.05 229 202.13V198.5C229 198.102 228.842 197.721 228.561 197.439C228.279 197.158 227.898 197 227.5 197C224.15 197 221 197.1 218 197.25V192.5C218 192.102 217.842 191.721 217.561 191.439C217.279 191.158 216.898 191 216.5 191C182.35 191 173.25 203.65 170.85 209.68C166.05 206.11 150.73 201.46 104.75 201.46C104.325 201.451 103.912 201.599 103.589 201.876C103.266 202.153 103.056 202.539 103 202.96V203.08H99.5C99.1022 203.08 98.7206 203.238 98.4393 203.519C98.158 203.801 98 204.182 98 204.58V307.58C98 307.978 98.158 308.359 98.4393 308.641C98.7206 308.922 99.1022 309.08 99.5 309.08H243.5C243.898 309.08 244.279 308.922 244.561 308.641C244.842 308.359 245 307.978 245 307.58V204.58C245 204.182 244.842 203.801 244.561 203.519C244.279 203.238 243.898 203.08 243.5 203.08ZM106.5 204.46C163.79 204.59 169.58 212.36 170 213.1V302.92C168.21 302.92 164.8 302.98 159.91 302.98C149.14 302.98 131.38 302.81 107.5 301.98C107.5 295.9 107.34 286.84 107.18 275.59C106.9 256.57 106.51 230.61 106.5 204.46ZM215 194.01V288.32C188.28 289.32 177.41 294.57 173 298.81V213C173.16 211.88 176.35 194.45 215 194.01ZM226 294.32C195.89 295.38 181.24 299.02 174.88 301.32C178.37 297.71 188.31 292.2 216.55 291.32C216.939 291.307 217.308 291.143 217.578 290.863C217.849 290.583 218 290.209 218 289.82V200.26C220.54 200.12 223.2 200.03 226 200.01V294.32ZM229.6 205.08C229.703 205.37 229.892 205.622 230.142 205.801C230.393 205.98 230.692 206.077 231 206.08H236V299.31C211.73 300.11 194.51 301.13 184 301.88C192.37 299.99 206 297.96 227.58 297.27C227.969 297.257 228.338 297.093 228.608 296.813C228.879 296.533 229.03 296.159 229.03 295.77V205.13L229.6 205.08ZM242 306.08H101V206.08H103.5C103.5 231.7 103.9 257 104.18 275.66C104.36 287.83 104.5 297.45 104.5 303.46C104.5 303.849 104.651 304.223 104.922 304.503C105.192 304.783 105.561 304.947 105.95 304.96C130.6 305.81 148.9 305.96 159.95 305.96C167.49 305.96 171.53 305.88 171.57 305.88H171.7C171.91 305.88 193.18 303.68 237.59 302.26C237.979 302.247 238.348 302.083 238.618 301.803C238.889 301.523 239.04 301.149 239.04 300.76V206.08H242.04L242 306.08Z" fill="black"/>
<path d="M117 219.78C117.37 219.78 154.32 219.78 161.94 222.78C162.108 222.847 162.288 222.881 162.47 222.88C162.808 222.88 163.135 222.762 163.395 222.547C163.655 222.331 163.832 222.032 163.895 221.7C163.958 221.368 163.903 221.024 163.739 220.728C163.576 220.433 163.314 220.203 163 220.08C154.87 216.93 118.55 216.9 117 216.9C116.637 216.93 116.299 217.096 116.053 217.363C115.807 217.631 115.67 217.981 115.67 218.345C115.67 218.709 115.807 219.059 116.053 219.327C116.299 219.595 116.637 219.76 117 219.79V219.78Z" fill="black"/>
<path d="M117 231.72C117.36 231.72 153.1 231.6 162 234.46C162.146 234.508 162.298 234.531 162.45 234.53C162.79 234.522 163.117 234.395 163.372 234.171C163.628 233.947 163.797 233.64 163.849 233.304C163.902 232.968 163.834 232.624 163.659 232.333C163.484 232.042 163.212 231.821 162.89 231.71C153.54 228.71 118.45 228.81 116.97 228.83C116.608 228.86 116.27 229.025 116.024 229.293C115.777 229.561 115.641 229.911 115.641 230.275C115.641 230.639 115.777 230.989 116.024 231.257C116.27 231.524 116.608 231.69 116.97 231.72H117Z" fill="black"/>
<path d="M117 243.65C117.35 243.65 151.88 243.38 162.08 246.15C162.204 246.182 162.332 246.199 162.46 246.2C162.816 246.209 163.162 246.085 163.432 245.854C163.702 245.622 163.877 245.299 163.923 244.946C163.969 244.594 163.882 244.237 163.681 243.944C163.479 243.651 163.176 243.443 162.83 243.36C152.26 240.49 118.41 240.75 116.98 240.77C116.79 240.77 116.603 240.808 116.428 240.881C116.253 240.954 116.095 241.061 115.962 241.196C115.829 241.331 115.724 241.491 115.653 241.667C115.582 241.842 115.547 242.031 115.55 242.22C115.56 242.599 115.717 242.96 115.987 243.227C116.257 243.493 116.62 243.645 117 243.65V243.65Z" fill="black"/>
<path d="M117 256.08C117.34 256.08 150.65 255.41 162.12 258.08C162.23 258.08 162.34 257.88 162.45 257.88C162.801 257.888 163.143 257.765 163.409 257.533C163.674 257.302 163.843 256.981 163.883 256.631C163.923 256.282 163.831 255.93 163.625 255.645C163.419 255.36 163.114 255.162 162.77 255.09C150.96 252.34 118.34 252.82 116.96 252.84C116.565 252.871 116.198 253.052 115.934 253.346C115.669 253.64 115.528 254.025 115.54 254.42C115.539 254.827 115.687 255.221 115.956 255.526C116.225 255.832 116.596 256.029 117 256.08V256.08Z" fill="black"/>
<path d="M117 267.08C117.32 267.08 149.4 266.72 162.15 269.28C162.25 269.28 162.34 269.54 162.44 269.54C162.798 269.526 163.139 269.383 163.4 269.137C163.66 268.891 163.822 268.559 163.857 268.202C163.891 267.846 163.794 267.489 163.586 267.198C163.377 266.907 163.069 266.702 162.72 266.62C149.72 264 118.27 264.51 116.94 264.53C116.757 264.52 116.573 264.549 116.401 264.613C116.229 264.677 116.072 264.776 115.94 264.904C115.808 265.031 115.703 265.185 115.633 265.354C115.562 265.524 115.527 265.706 115.53 265.89C115.57 266.68 116.21 267.08 117 267.08Z" fill="black"/>
<path d="M117 279.08C117.3 279.08 148.16 278.54 162.18 280.99C162.26 280.99 162.34 281.21 162.43 281.21C162.798 281.21 163.154 281.071 163.425 280.821C163.696 280.571 163.863 280.228 163.893 279.86C163.923 279.493 163.814 279.127 163.588 278.837C163.361 278.546 163.033 278.351 162.67 278.29C148.38 275.79 118.2 276.46 116.92 276.49C116.736 276.485 116.553 276.516 116.382 276.584C116.211 276.651 116.056 276.752 115.925 276.881C115.794 277.01 115.691 277.164 115.621 277.334C115.551 277.504 115.517 277.686 115.52 277.87C115.529 278.05 115.576 278.226 115.657 278.386C115.738 278.547 115.852 278.689 115.991 278.803C116.131 278.917 116.293 279 116.466 279.048C116.64 279.096 116.822 279.107 117 279.08V279.08Z" fill="black"/>
<path d="M117 291.41C117.3 291.41 146.93 290.52 162.21 292.86H162.43C162.791 292.853 163.137 292.711 163.399 292.463C163.661 292.214 163.821 291.876 163.847 291.516C163.874 291.155 163.764 290.798 163.541 290.514C163.318 290.23 162.996 290.039 162.64 289.98C147.1 287.6 118.14 288.46 116.92 288.5C116.557 288.539 116.222 288.713 115.982 288.987C115.741 289.262 115.614 289.617 115.624 289.982C115.634 290.347 115.781 290.694 116.036 290.955C116.291 291.216 116.635 291.372 117 291.39V291.41Z" fill="black"/>
</g>
</svg>
